<svg xmlns="http://www.w3.org/2000/svg" width="12.355" height="11.547" viewBox="0 0 12.355 11.547">
  <path id="Path_106" data-name="Path 106" d="M12.008,2H10.854V3.155a.385.385,0,1,1-.77,0V2H3.925V3.155a.385.385,0,1,1-.77,0V2H2A1.06,1.06,0,0,0,1,3.155V4.54H13.317V3.155A1.3,1.3,0,0,0,12.008,2ZM1,5.349v7.044a1.045,1.045,0,0,0,1.039,1.155H12.047a1.3,1.3,0,0,0,1.309-1.155V5.349Zm3.426,6.466H3.5a.3.3,0,0,1-.308-.308v-.962a.3.3,0,0,1,.308-.308h.962a.3.3,0,0,1,.308.308v.962a.337.337,0,0,1-.346.308Zm0-3.464H3.5a.3.3,0,0,1-.308-.308V7.081A.3.3,0,0,1,3.5,6.773h.962a.3.3,0,0,1,.308.308v.962a.337.337,0,0,1-.346.308ZM7.5,11.815H6.543a.3.3,0,0,1-.308-.308v-.962a.3.3,0,0,1,.308-.308H7.5a.3.3,0,0,1,.308.308v.962A.283.283,0,0,1,7.5,11.815Zm0-3.464H6.543a.3.3,0,0,1-.308-.308V7.081a.3.3,0,0,1,.308-.308H7.5a.3.3,0,0,1,.308.308v.962A.283.283,0,0,1,7.5,8.351Zm3.079,3.464H9.622a.3.3,0,0,1-.308-.308v-.962a.3.3,0,0,1,.308-.308h.962a.3.3,0,0,1,.308.308v.962A.283.283,0,0,1,10.584,11.815Zm0-3.464H9.622a.3.3,0,0,1-.308-.308V7.081a.3.3,0,0,1,.308-.308h.962a.3.3,0,0,1,.308.308v.962A.283.283,0,0,1,10.584,8.351Z" transform="translate(-1 -2)" fill="#043f45"/>
</svg>
